<svg width="66" height="41" viewBox="0 0 66 41" fill="none" xmlns="http://www.w3.org/2000/svg">
<path d="M7.638 38H6.366V31.574L2.112 38H0.84V29.36H2.112V35.78L6.366 29.36H7.638V38ZM11.6227 38.18C10.9947 38.18 10.4307 38.046 9.93066 37.778C9.43466 37.51 9.04266 37.14 8.75466 36.668L9.75066 36.014C9.98266 36.326 10.2507 36.568 10.5547 36.74C10.8627 36.912 11.2087 36.998 11.5927 36.998C11.9927 36.998 12.3087 36.908 12.5407 36.728C12.7767 36.544 12.8947 36.298 12.8947 35.99C12.8947 35.746 12.8267 35.566 12.6907 35.45C12.5587 35.33 12.3747 35.252 12.1387 35.216C11.9067 35.18 11.6427 35.162 11.3467 35.162H10.7707V34.154H11.3467C11.7387 34.154 12.0607 34.1 12.3127 33.992C12.5687 33.88 12.6967 33.67 12.6967 33.362C12.6967 33.062 12.5867 32.846 12.3667 32.714C12.1507 32.582 11.8927 32.516 11.5927 32.516C11.2567 32.516 10.9307 32.588 10.6147 32.732C10.2987 32.872 10.0227 33.046 9.78666 33.254L9.05466 32.396C9.39866 32.064 9.79066 31.806 10.2307 31.622C10.6747 31.434 11.1507 31.34 11.6587 31.34C12.0747 31.34 12.4587 31.414 12.8107 31.562C13.1667 31.706 13.4507 31.92 13.6627 32.204C13.8787 32.488 13.9867 32.838 13.9867 33.254C13.9867 33.578 13.9147 33.874 13.7707 34.142C13.6267 34.41 13.4067 34.654 13.1107 34.874L13.0747 34.448C13.3187 34.524 13.5227 34.646 13.6867 34.814C13.8507 34.982 13.9727 35.18 14.0527 35.408C14.1367 35.632 14.1787 35.87 14.1787 36.122C14.1787 36.558 14.0627 36.93 13.8307 37.238C13.6027 37.546 13.2947 37.78 12.9067 37.94C12.5187 38.1 12.0907 38.18 11.6227 38.18ZM18.1642 38.186C17.5482 38.182 17.0242 38.048 16.5922 37.784C16.1602 37.52 15.8222 37.14 15.5782 36.644C15.3382 36.144 15.1982 35.542 15.1582 34.838C15.1382 34.498 15.1402 34.122 15.1642 33.71C15.1882 33.294 15.2322 32.892 15.2962 32.504C15.3642 32.116 15.4502 31.792 15.5542 31.532C15.6702 31.244 15.8282 30.98 16.0282 30.74C16.2282 30.496 16.4482 30.292 16.6882 30.128C16.9442 29.952 17.2282 29.816 17.5402 29.72C17.8522 29.62 18.1782 29.542 18.5182 29.486C18.8622 29.43 19.2082 29.382 19.5562 29.342C19.9082 29.298 20.2502 29.244 20.5822 29.18L20.7022 30.302C20.4822 30.354 20.2222 30.396 19.9222 30.428C19.6262 30.46 19.3182 30.496 18.9982 30.536C18.6822 30.576 18.3802 30.632 18.0922 30.704C17.8042 30.776 17.5542 30.878 17.3422 31.01C17.0422 31.194 16.8122 31.462 16.6522 31.814C16.4962 32.166 16.4022 32.548 16.3702 32.96C16.6182 32.584 16.9342 32.314 17.3182 32.15C17.7022 31.982 18.1002 31.898 18.5122 31.898C19.0882 31.898 19.5842 32.034 20.0002 32.306C20.4202 32.578 20.7422 32.948 20.9662 33.416C21.1902 33.884 21.3022 34.414 21.3022 35.006C21.3022 35.646 21.1702 36.206 20.9062 36.686C20.6462 37.162 20.2802 37.534 19.8082 37.802C19.3362 38.066 18.7882 38.194 18.1642 38.186ZM18.2302 37.004C18.8062 37.004 19.2402 36.826 19.5322 36.47C19.8282 36.114 19.9762 35.64 19.9762 35.048C19.9762 34.44 19.8242 33.962 19.5202 33.614C19.2162 33.266 18.7862 33.092 18.2302 33.092C17.6662 33.092 17.2342 33.266 16.9342 33.614C16.6382 33.962 16.4902 34.44 16.4902 35.048C16.4902 35.664 16.6402 36.144 16.9402 36.488C17.2402 36.832 17.6702 37.004 18.2302 37.004ZM25.6672 38.18C25.0472 38.18 24.5272 38.03 24.1072 37.73C23.6872 37.426 23.3692 37.016 23.1532 36.5C22.9372 35.984 22.8292 35.402 22.8292 34.754C22.8292 34.106 22.9352 33.524 23.1472 33.008C23.3632 32.492 23.6792 32.086 24.0952 31.79C24.5152 31.49 25.0312 31.34 25.6432 31.34C26.2512 31.34 26.7752 31.49 27.2152 31.79C27.6592 32.086 28.0012 32.492 28.2412 33.008C28.4812 33.52 28.6012 34.102 28.6012 34.754C28.6012 35.402 28.4812 35.986 28.2412 36.506C28.0052 37.022 27.6672 37.43 27.2272 37.73C26.7912 38.03 26.2712 38.18 25.6672 38.18ZM22.6192 40.88V31.52H23.7352V36.182H23.8792V40.88H22.6192ZM25.4932 37.046C25.8932 37.046 26.2232 36.944 26.4832 36.74C26.7472 36.536 26.9432 36.262 27.0712 35.918C27.2032 35.57 27.2692 35.182 27.2692 34.754C27.2692 34.33 27.2032 33.946 27.0712 33.602C26.9432 33.258 26.7452 32.984 26.4772 32.78C26.2092 32.576 25.8672 32.474 25.4512 32.474C25.0592 32.474 24.7352 32.57 24.4792 32.762C24.2272 32.954 24.0392 33.222 23.9152 33.566C23.7952 33.91 23.7352 34.306 23.7352 34.754C23.7352 35.202 23.7952 35.598 23.9152 35.942C24.0352 36.286 24.2252 36.556 24.4852 36.752C24.7452 36.948 25.0812 37.046 25.4932 37.046ZM31.7559 38.18C31.2759 38.18 30.8739 38.092 30.5499 37.916C30.2259 37.736 29.9799 37.5 29.8119 37.208C29.6479 36.912 29.5659 36.588 29.5659 36.236C29.5659 35.908 29.6239 35.62 29.7399 35.372C29.8559 35.124 30.0279 34.914 30.2559 34.742C30.4839 34.566 30.7639 34.424 31.0959 34.316C31.3839 34.232 31.7099 34.158 32.0739 34.094C32.4379 34.03 32.8199 33.97 33.2199 33.914C33.6239 33.858 34.0239 33.802 34.4199 33.746L33.9639 33.998C33.9719 33.49 33.8639 33.114 33.6399 32.87C33.4199 32.622 33.0399 32.498 32.4999 32.498C32.1599 32.498 31.8479 32.578 31.5639 32.738C31.2799 32.894 31.0819 33.154 30.9699 33.518L29.7999 33.158C29.9599 32.602 30.2639 32.16 30.7119 31.832C31.1639 31.504 31.7639 31.34 32.5119 31.34C33.0919 31.34 33.5959 31.44 34.0239 31.64C34.4559 31.836 34.7719 32.148 34.9719 32.576C35.0759 32.788 35.1399 33.012 35.1639 33.248C35.1879 33.484 35.1999 33.738 35.1999 34.01V38H34.0899V36.518L34.3059 36.71C34.0379 37.206 33.6959 37.576 33.2799 37.82C32.8679 38.06 32.3599 38.18 31.7559 38.18ZM31.9779 37.154C32.3339 37.154 32.6399 37.092 32.8959 36.968C33.1519 36.84 33.3579 36.678 33.5139 36.482C33.6699 36.286 33.7719 36.082 33.8199 35.87C33.8879 35.678 33.9259 35.462 33.9339 35.222C33.9459 34.982 33.9519 34.79 33.9519 34.646L34.3599 34.796C33.9639 34.856 33.6039 34.91 33.2799 34.958C32.9559 35.006 32.6619 35.054 32.3979 35.102C32.1379 35.146 31.9059 35.2 31.7019 35.264C31.5299 35.324 31.3759 35.396 31.2399 35.48C31.1079 35.564 31.0019 35.666 30.9219 35.786C30.8459 35.906 30.8079 36.052 30.8079 36.224C30.8079 36.392 30.8499 36.548 30.9339 36.692C31.0179 36.832 31.1459 36.944 31.3179 37.028C31.4899 37.112 31.7099 37.154 31.9779 37.154ZM36.752 38V31.52H38.006V34.166H41.168V31.52H42.422V38H41.168V35.348H38.006V38H36.752ZM44.0996 38V31.52H45.3536V34.166H48.5156V31.52H49.7696V38H48.5156V35.348H45.3536V38H44.0996ZM54.2673 38.18C53.6193 38.18 53.0573 38.034 52.5813 37.742C52.1053 37.45 51.7373 37.048 51.4773 36.536C51.2213 36.02 51.0933 35.426 51.0933 34.754C51.0933 34.078 51.2253 33.484 51.4893 32.972C51.7533 32.456 52.1233 32.056 52.5993 31.772C53.0753 31.484 53.6313 31.34 54.2673 31.34C54.9153 31.34 55.4773 31.486 55.9533 31.778C56.4293 32.07 56.7973 32.472 57.0573 32.984C57.3173 33.496 57.4473 34.086 57.4473 34.754C57.4473 35.43 57.3153 36.026 57.0513 36.542C56.7913 37.054 56.4233 37.456 55.9473 37.748C55.4713 38.036 54.9113 38.18 54.2673 38.18ZM54.2673 36.998C54.8873 36.998 55.3493 36.79 55.6533 36.374C55.9613 35.954 56.1153 35.414 56.1153 34.754C56.1153 34.078 55.9593 33.538 55.6473 33.134C55.3393 32.726 54.8793 32.522 54.2673 32.522C53.8473 32.522 53.5013 32.618 53.2293 32.81C52.9573 32.998 52.7553 33.26 52.6233 33.596C52.4913 33.928 52.4253 34.314 52.4253 34.754C52.4253 35.434 52.5813 35.978 52.8933 36.386C53.2053 36.794 53.6633 36.998 54.2673 36.998ZM61.6398 38.18C60.9958 38.18 60.4298 38.04 59.9418 37.76C59.4578 37.476 59.0798 37.082 58.8078 36.578C58.5398 36.07 58.4058 35.482 58.4058 34.814C58.4058 34.106 58.5378 33.492 58.8018 32.972C59.0698 32.452 59.4418 32.05 59.9178 31.766C60.3938 31.482 60.9478 31.34 61.5798 31.34C62.2398 31.34 62.8018 31.494 63.2658 31.802C63.7298 32.106 64.0758 32.54 64.3038 33.104C64.5358 33.668 64.6278 34.338 64.5798 35.114H63.3258V34.658C63.3178 33.906 63.1738 33.35 62.8938 32.99C62.6178 32.63 62.1958 32.45 61.6278 32.45C60.9998 32.45 60.5278 32.648 60.2118 33.044C59.8958 33.44 59.7378 34.012 59.7378 34.76C59.7378 35.472 59.8958 36.024 60.2118 36.416C60.5278 36.804 60.9838 36.998 61.5798 36.998C61.9718 36.998 62.3098 36.91 62.5938 36.734C62.8818 36.554 63.1058 36.298 63.2658 35.966L64.4958 36.356C64.2438 36.936 63.8618 37.386 63.3498 37.706C62.8378 38.022 62.2678 38.18 61.6398 38.18ZM59.3298 35.114V34.136H63.9558V35.114H59.3298Z" fill="#454545"/>
<path d="M41.3383 10.6495L33.0093 19L24.6802 10.6495C24.1309 10.1083 23.6981 9.45782 23.4093 8.73903C23.1204 8.02024 22.9817 7.2487 23.0019 6.47298C23.0221 5.69726 23.2007 4.93418 23.5266 4.23178C23.8524 3.52938 24.3184 2.90289 24.8951 2.39174C25.4719 1.8806 26.1469 1.49588 26.8778 1.26181C27.6086 1.02775 28.3794 0.949401 29.1417 1.03171C29.9039 1.11402 30.641 1.35521 31.3067 1.74008C31.9723 2.12494 32.552 2.64516 33.0093 3.26797C33.4685 2.64968 34.0489 2.13401 34.714 1.75323C35.3792 1.37244 36.1149 1.13474 36.875 1.055C37.635 0.975265 38.4032 1.0552 39.1314 1.28982C39.8596 1.52443 40.5321 1.90867 41.1068 2.41848C41.6815 2.92829 42.1461 3.55271 42.4715 4.25264C42.7969 4.95258 42.976 5.71297 42.9978 6.48622C43.0195 7.25947 42.8833 8.02894 42.5978 8.74647C42.3122 9.464 41.8834 10.1141 41.3383 10.6562" stroke="#454545" stroke-width="2" stroke-linecap="round" stroke-linejoin="round"/>
</svg>
