<svg width="66" height="43" viewBox="0 0 66 43" fill="none" xmlns="http://www.w3.org/2000/svg">
<path d="M4.446 40.18C3.582 40.18 2.846 39.992 2.238 39.616C1.63 39.236 1.164 38.708 0.84 38.032C0.52 37.356 0.36 36.572 0.36 35.68C0.36 34.788 0.52 34.004 0.84 33.328C1.164 32.652 1.63 32.126 2.238 31.75C2.846 31.37 3.582 31.18 4.446 31.18C5.442 31.18 6.266 31.432 6.918 31.936C7.574 32.44 8.03 33.118 8.286 33.97L7.014 34.312C6.846 33.708 6.546 33.234 6.114 32.89C5.686 32.546 5.13 32.374 4.446 32.374C3.834 32.374 3.324 32.512 2.916 32.788C2.508 33.064 2.2 33.45 1.992 33.946C1.788 34.442 1.686 35.02 1.686 35.68C1.682 36.34 1.782 36.918 1.986 37.414C2.194 37.91 2.502 38.296 2.91 38.572C3.322 38.848 3.834 38.986 4.446 38.986C5.13 38.986 5.686 38.814 6.114 38.47C6.546 38.122 6.846 37.648 7.014 37.048L8.286 37.39C8.03 38.242 7.574 38.92 6.918 39.424C6.266 39.928 5.442 40.18 4.446 40.18ZM12.6476 40.18C12.0276 40.18 11.5076 40.03 11.0876 39.73C10.6676 39.426 10.3496 39.016 10.1336 38.5C9.91763 37.984 9.80963 37.402 9.80963 36.754C9.80963 36.106 9.91563 35.524 10.1276 35.008C10.3436 34.492 10.6596 34.086 11.0756 33.79C11.4956 33.49 12.0116 33.34 12.6236 33.34C13.2316 33.34 13.7556 33.49 14.1956 33.79C14.6396 34.086 14.9816 34.492 15.2216 35.008C15.4616 35.52 15.5816 36.102 15.5816 36.754C15.5816 37.402 15.4616 37.986 15.2216 38.506C14.9856 39.022 14.6476 39.43 14.2076 39.73C13.7716 40.03 13.2516 40.18 12.6476 40.18ZM9.59963 42.88V33.52H10.7156V38.182H10.8596V42.88H9.59963ZM12.4736 39.046C12.8736 39.046 13.2036 38.944 13.4636 38.74C13.7276 38.536 13.9236 38.262 14.0516 37.918C14.1836 37.57 14.2496 37.182 14.2496 36.754C14.2496 36.33 14.1836 35.946 14.0516 35.602C13.9236 35.258 13.7256 34.984 13.4576 34.78C13.1896 34.576 12.8476 34.474 12.4316 34.474C12.0396 34.474 11.7156 34.57 11.4596 34.762C11.2076 34.954 11.0196 35.222 10.8956 35.566C10.7756 35.91 10.7156 36.306 10.7156 36.754C10.7156 37.202 10.7756 37.598 10.8956 37.942C11.0156 38.286 11.2056 38.556 11.4656 38.752C11.7256 38.948 12.0616 39.046 12.4736 39.046ZM18.7364 40.18C18.2564 40.18 17.8544 40.092 17.5304 39.916C17.2064 39.736 16.9604 39.5 16.7924 39.208C16.6284 38.912 16.5464 38.588 16.5464 38.236C16.5464 37.908 16.6044 37.62 16.7204 37.372C16.8364 37.124 17.0084 36.914 17.2364 36.742C17.4644 36.566 17.7444 36.424 18.0764 36.316C18.3644 36.232 18.6904 36.158 19.0544 36.094C19.4184 36.03 19.8004 35.97 20.2004 35.914C20.6044 35.858 21.0044 35.802 21.4004 35.746L20.9444 35.998C20.9524 35.49 20.8444 35.114 20.6204 34.87C20.4004 34.622 20.0204 34.498 19.4804 34.498C19.1404 34.498 18.8284 34.578 18.5444 34.738C18.2604 34.894 18.0624 35.154 17.9504 35.518L16.7804 35.158C16.9404 34.602 17.2444 34.16 17.6924 33.832C18.1444 33.504 18.7444 33.34 19.4924 33.34C20.0724 33.34 20.5764 33.44 21.0044 33.64C21.4364 33.836 21.7524 34.148 21.9524 34.576C22.0564 34.788 22.1204 35.012 22.1444 35.248C22.1684 35.484 22.1804 35.738 22.1804 36.01V40H21.0704V38.518L21.2864 38.71C21.0184 39.206 20.6764 39.576 20.2604 39.82C19.8484 40.06 19.3404 40.18 18.7364 40.18ZM18.9584 39.154C19.3144 39.154 19.6204 39.092 19.8764 38.968C20.1324 38.84 20.3384 38.678 20.4944 38.482C20.6504 38.286 20.7524 38.082 20.8004 37.87C20.8684 37.678 20.9064 37.462 20.9144 37.222C20.9264 36.982 20.9324 36.79 20.9324 36.646L21.3404 36.796C20.9444 36.856 20.5844 36.91 20.2604 36.958C19.9364 37.006 19.6424 37.054 19.3784 37.102C19.1184 37.146 18.8864 37.2 18.6824 37.264C18.5104 37.324 18.3564 37.396 18.2204 37.48C18.0884 37.564 17.9824 37.666 17.9024 37.786C17.8264 37.906 17.7884 38.052 17.7884 38.224C17.7884 38.392 17.8304 38.548 17.9144 38.692C17.9984 38.832 18.1264 38.944 18.2984 39.028C18.4704 39.112 18.6904 39.154 18.9584 39.154ZM23.7324 40V33.52H26.5824C26.7704 33.52 26.9584 33.532 27.1464 33.556C27.3344 33.576 27.5004 33.606 27.6444 33.646C27.9724 33.738 28.2524 33.922 28.4844 34.198C28.7164 34.47 28.8324 34.834 28.8324 35.29C28.8324 35.55 28.7924 35.77 28.7124 35.95C28.6324 36.126 28.5224 36.278 28.3824 36.406C28.3184 36.462 28.2504 36.512 28.1784 36.556C28.1064 36.6 28.0344 36.634 27.9624 36.658C28.1104 36.682 28.2564 36.734 28.4004 36.814C28.6204 36.93 28.8004 37.098 28.9404 37.318C29.0844 37.534 29.1564 37.824 29.1564 38.188C29.1564 38.624 29.0504 38.99 28.8384 39.286C28.6264 39.578 28.3264 39.778 27.9384 39.886C27.7864 39.93 27.6144 39.96 27.4224 39.976C27.2344 39.992 27.0464 40 26.8584 40H23.7324ZM25.0044 39.01H26.7804C26.8644 39.01 26.9604 39.002 27.0684 38.986C27.1764 38.97 27.2724 38.948 27.3564 38.92C27.5364 38.864 27.6644 38.762 27.7404 38.614C27.8204 38.466 27.8604 38.308 27.8604 38.14C27.8604 37.912 27.8004 37.73 27.6804 37.594C27.5604 37.454 27.4084 37.364 27.2244 37.324C27.1444 37.296 27.0564 37.28 26.9604 37.276C26.8644 37.272 26.7824 37.27 26.7144 37.27H25.0044V39.01ZM25.0044 36.262H26.4084C26.5244 36.262 26.6424 36.256 26.7624 36.244C26.8824 36.228 26.9864 36.202 27.0744 36.166C27.2304 36.106 27.3464 36.006 27.4224 35.866C27.4984 35.722 27.5364 35.566 27.5364 35.398C27.5364 35.214 27.4944 35.05 27.4104 34.906C27.3264 34.762 27.2004 34.662 27.0324 34.606C26.9164 34.566 26.7824 34.544 26.6304 34.54C26.4824 34.532 26.3884 34.528 26.3484 34.528H25.0044V36.262ZM30.3535 40V33.52H31.6075V36.166H34.7695V33.52H36.0235V40H34.7695V37.348H31.6075V40H30.3535ZM40.5812 40.18C39.9372 40.18 39.3712 40.04 38.8832 39.76C38.3992 39.476 38.0212 39.082 37.7492 38.578C37.4812 38.07 37.3472 37.482 37.3472 36.814C37.3472 36.106 37.4792 35.492 37.7432 34.972C38.0112 34.452 38.3832 34.05 38.8592 33.766C39.3352 33.482 39.8892 33.34 40.5212 33.34C41.1812 33.34 41.7432 33.494 42.2072 33.802C42.6712 34.106 43.0172 34.54 43.2452 35.104C43.4772 35.668 43.5692 36.338 43.5212 37.114H42.2672V36.658C42.2592 35.906 42.1152 35.35 41.8352 34.99C41.5592 34.63 41.1372 34.45 40.5692 34.45C39.9412 34.45 39.4692 34.648 39.1532 35.044C38.8372 35.44 38.6792 36.012 38.6792 36.76C38.6792 37.472 38.8372 38.024 39.1532 38.416C39.4692 38.804 39.9252 38.998 40.5212 38.998C40.9132 38.998 41.2512 38.91 41.5352 38.734C41.8232 38.554 42.0472 38.298 42.2072 37.966L43.4372 38.356C43.1852 38.936 42.8032 39.386 42.2912 39.706C41.7792 40.022 41.2092 40.18 40.5812 40.18ZM38.2712 37.114V36.136H42.8972V37.114H38.2712ZM44.8613 40V33.52H46.1153V36.166H49.2773V33.52H50.5313V40H49.2773V37.348H46.1153V40H44.8613ZM57.675 33.52V40H56.469V35.494L53.229 40H52.209V33.52H53.415V37.936L56.661 33.52H57.675ZM62.2257 40.18C61.5817 40.18 61.0157 40.04 60.5277 39.76C60.0437 39.476 59.6657 39.082 59.3937 38.578C59.1257 38.07 58.9917 37.482 58.9917 36.814C58.9917 36.106 59.1237 35.492 59.3877 34.972C59.6557 34.452 60.0277 34.05 60.5037 33.766C60.9797 33.482 61.5337 33.34 62.1657 33.34C62.8257 33.34 63.3877 33.494 63.8517 33.802C64.3157 34.106 64.6617 34.54 64.8897 35.104C65.1217 35.668 65.2137 36.338 65.1657 37.114H63.9117V36.658C63.9037 35.906 63.7597 35.35 63.4797 34.99C63.2037 34.63 62.7817 34.45 62.2137 34.45C61.5857 34.45 61.1137 34.648 60.7977 35.044C60.4817 35.44 60.3237 36.012 60.3237 36.76C60.3237 37.472 60.4817 38.024 60.7977 38.416C61.1137 38.804 61.5697 38.998 62.1657 38.998C62.5577 38.998 62.8957 38.91 63.1797 38.734C63.4677 38.554 63.6917 38.298 63.8517 37.966L65.0817 38.356C64.8297 38.936 64.4477 39.386 63.9357 39.706C63.4237 40.022 62.8537 40.18 62.2257 40.18ZM59.9157 37.114V36.136H64.5417V37.114H59.9157Z" fill="#454545"/>
<path d="M23 21V16M29.6667 21V11M36.3333 21V6M43 21V1" stroke="#454545" stroke-width="2" stroke-linecap="round" stroke-linejoin="round"/>
</svg>
